# xmcd
#
# Track frame offsets:
#	150
#	10211
#	22038
#	36139
#	48283
#	59405
#	71716
#	85234
#	97528
#	107853
#	120301
#	132386
#	144493
#	154451
#	163705
#	173416
#	183366
#	196115
#	207299
#	219278
#	232192
#	244546
#	255613
#	266642
#	279546
#
# Disc length: 3881 seconds
#
# Revision: 0
# Processed by: cddbd v1.5.2PL0 Copyright (c) Steve Scherf et al.
# Submitted via: EasyCDDAExtractor 15.3.0.1
#
DISCID=5c0f2719
DTITLE=Regan Keray - Keray Regan and The Peace River Rangers
DYEAR=2011
DGENRE=Country
TTITLE0=Regan Keray - If The Moon Would Shine
TTITLE1=Regan Keray - Those Beautiful Big Brown Eyes
TTITLE2=Regan Keray - I Can't Wait Forever For You
TTITLE3=Regan Keray - High Wind On The Prairie
TTITLE4=Regan Keray - You'll Never Miss Your Daddy
TTITLE5=Regan Keray - There's A Room Reserved In My Heart
TTITLE6=Regan Keray - My Home By The Fraser
TTITLE7=Regan Keray - Cobwebs On Your Picture
TTITLE8=Regan Keray - I Wanna Be With You
TTITLE9=Regan Keray - Lena Was A Shy Girl
TTITLE10=Regan Keray - Picking Flowers
TTITLE11=Regan Keray - How Are You Feeling Right Now
TTITLE12=Regan Keray - Olga From Norway
TTITLE13=Regan Keray - Flying Saucers
TTITLE14=Regan Keray and Petrie Sisters - I Don't Care If You Go A Little Furthe
TTITLE14=r
TTITLE15=Regan Keray and Lucille Starr - She Don't Trust Me Anymore
TTITLE16=Regan Keray - Pioneer Girls
TTITLE17=Regan Fern and Bob - My Peace River Home
TTITLE18=Regan Fern and Bob - Whispering Pines
TTITLE19=Regan Fern and Bob - I Will Never Hold Another
TTITLE20=Regan Bob - When You Can't Have The One You Want
TTITLE21=Regan Bob - Teen Age Boogie
TTITLE22=Regan Bob - Hey Cousin
TTITLE23=Regan Keray and Vic Siebert - My Dream And I
TTITLE24=Regan Keray and Vic Siebert - Little White House On The Hill
EXTD=
EXTT0=
EXTT1=
EXTT2=
EXTT3=
EXTT4=
EXTT5=
EXTT6=
EXTT7=
EXTT8=
EXTT9=
EXTT10=
EXTT11=
EXTT12=
EXTT13=
EXTT14=
EXTT15=
EXTT16=
EXTT17=
EXTT18=
EXTT19=
EXTT20=
EXTT21=
EXTT22=
EXTT23=
EXTT24=
PLAYORDER=
